<svg width="189" height="45" viewBox="0 0 189 45" fill="none" xmlns="http://www.w3.org/2000/svg">
<path d="M6.87114 39.135H37.1289C37.2866 39.135 37.4378 39.0724 37.5493 38.9609C37.6608 38.8494 37.7235 38.6981 37.7235 38.5404V25.5729C37.7235 25.4152 37.6608 25.264 37.5493 25.1525C37.4378 25.041 37.2866 24.9783 37.1289 24.9783C36.9712 24.9783 36.8199 25.041 36.7084 25.1525C36.5969 25.264 36.5343 25.4152 36.5343 25.5729V37.9458H7.46573V25.5729C7.46573 25.4152 7.40309 25.264 7.29158 25.1525C7.18007 25.041 7.02883 24.9783 6.87114 24.9783C6.71344 24.9783 6.5622 25.041 6.4507 25.1525C6.33919 25.264 6.27654 25.4152 6.27654 25.5729V38.5404C6.27654 38.6981 6.33919 38.8494 6.4507 38.9609C6.5622 39.0724 6.71344 39.135 6.87114 39.135Z" fill="#CD0000"/>
<path d="M20.1086 17.5227C20.2663 17.5227 20.4175 17.4601 20.529 17.3485C20.6405 17.237 20.7032 17.0858 20.7032 16.9281V9.45049H23.2968V16.9281C23.2968 17.0858 23.3595 17.237 23.471 17.3485C23.5825 17.4601 23.7337 17.5227 23.8914 17.5227C24.0491 17.5227 24.2003 17.4601 24.3118 17.3485C24.4234 17.237 24.486 17.0858 24.486 16.9281V9.39459C24.4857 9.09365 24.366 8.80512 24.1532 8.59232C23.9404 8.37952 23.6519 8.25983 23.3509 8.25951H20.6497C20.3486 8.25967 20.0599 8.37929 19.847 8.59211C19.6341 8.80493 19.5143 9.09355 19.514 9.39459V16.9281C19.514 17.0858 19.5766 17.237 19.6882 17.3485C19.7997 17.4601 19.9509 17.5227 20.1086 17.5227Z" fill="#CD0000"/>
<path d="M22 7.79691C22.5776 7.79628 23.1314 7.56655 23.5398 7.15812C23.9482 6.74969 24.178 6.19593 24.1786 5.61832C24.1786 4.66697 22.9127 2.21546 22.525 1.48589C22.4694 1.3968 22.392 1.32334 22.3002 1.2724C22.2083 1.22147 22.105 1.19475 22 1.19475C21.895 1.19475 21.7917 1.22147 21.6998 1.2724C21.608 1.32334 21.5306 1.3968 21.475 1.48589C21.0873 2.21546 19.8214 4.66935 19.8214 5.61832C19.822 6.19593 20.0518 6.74969 20.4602 7.15812C20.8686 7.56655 21.4224 7.79628 22 7.79691ZM22 3.07881C22.4386 3.87878 22.7712 4.73246 22.9894 5.61832C22.9894 5.88073 22.8852 6.13239 22.6996 6.31793C22.5141 6.50348 22.2624 6.60773 22 6.60773C21.7376 6.60773 21.4859 6.50348 21.3004 6.31793C21.1148 6.13239 21.0106 5.88073 21.0106 5.61832C21.2288 4.73246 21.5614 3.87878 22 3.07881Z" fill="#CD0000"/>
<path d="M22 9.45405C22.1577 9.45405 22.3089 9.39141 22.4204 9.2799C22.5319 9.16839 22.5946 9.01716 22.5946 8.85946V7.20232C22.5946 7.04463 22.5319 6.89339 22.4204 6.78188C22.3089 6.67037 22.1577 6.60773 22 6.60773C21.8423 6.60773 21.6911 6.67037 21.5796 6.78188C21.4681 6.89339 21.4054 7.04463 21.4054 7.20232V8.85946C21.4054 9.01716 21.4681 9.16839 21.5796 9.2799C21.6911 9.39141 21.8423 9.45405 22 9.45405Z" fill="#CD0000"/>
<path d="M16.2324 26.1675C17.4229 26.1808 18.5762 25.7534 19.4706 24.9676C20.1656 24.3481 21.0642 24.0057 21.9952 24.0057C22.9263 24.0057 23.8249 24.3481 24.5199 24.9676C25.4215 25.7418 26.5706 26.1674 27.7589 26.1674C28.9473 26.1674 30.0964 25.7418 30.998 24.9676C31.6938 24.3477 32.5932 24.0052 33.525 24.0052C34.4569 24.0052 35.3563 24.3477 36.0521 24.9676C36.572 25.3986 37.1648 25.7331 37.8025 25.9552C38.0437 26.0307 38.2992 26.0484 38.5485 26.0071C38.7978 25.9658 39.0339 25.8666 39.2379 25.7174C39.4395 25.5707 39.6032 25.3781 39.7157 25.1557C39.8282 24.9332 39.8862 24.6871 39.8848 24.4378V19.6294C39.8837 18.7555 39.536 17.9177 38.9181 17.2999C38.3001 16.682 37.4623 16.3345 36.5884 16.3335H7.41162C6.53774 16.3345 5.69992 16.682 5.08194 17.2999C4.46396 17.9177 4.11628 18.7555 4.11518 19.6294V24.4378C4.11399 24.6874 4.1722 24.9336 4.285 25.1562C4.3978 25.3788 4.56195 25.5714 4.76389 25.718C4.96709 25.8685 5.20315 25.9685 5.4526 26.0099C5.70205 26.0512 5.95775 26.0327 6.19864 25.9558C6.83558 25.7338 7.42762 25.3995 7.94675 24.9688C8.64145 24.3496 9.53959 24.0074 10.4702 24.0074C11.4008 24.0074 12.299 24.3496 12.9937 24.9688C13.8884 25.7543 15.0419 26.1813 16.2324 26.1675ZM21.9958 22.817C20.8054 22.8037 19.652 23.2311 18.7577 24.0169C18.0625 24.6363 17.1639 24.9786 16.2327 24.9786C15.3016 24.9786 14.403 24.6363 13.7078 24.0169C12.8069 23.2427 11.6583 22.8171 10.4705 22.8171C9.28267 22.8171 8.13416 23.2427 7.23324 24.0169C6.82045 24.365 6.34917 24.6372 5.84129 24.8208C5.77869 24.8411 5.71215 24.8464 5.64714 24.836C5.58212 24.8257 5.52049 24.8001 5.46729 24.7613C5.41626 24.7247 5.37479 24.6764 5.34643 24.6204C5.31807 24.5644 5.30364 24.5024 5.30437 24.4396V19.6294C5.30516 19.0708 5.52744 18.5353 5.92247 18.1404C6.3175 17.7455 6.85304 17.5233 7.41162 17.5227H36.5884C37.147 17.5233 37.6825 17.7455 38.0775 18.1404C38.4726 18.5353 38.6948 19.0708 38.6956 19.6294V24.4378C38.6962 24.5004 38.6817 24.5622 38.6535 24.6181C38.6252 24.674 38.584 24.7223 38.5333 24.7589C38.48 24.7979 38.4181 24.8236 38.3529 24.8339C38.2876 24.8443 38.2209 24.839 38.1581 24.8184C37.6494 24.6349 37.1772 24.3625 36.7638 24.0139C35.869 23.228 34.7153 22.8006 33.5244 22.814C32.3336 22.8006 31.1798 23.228 30.2851 24.0139C29.5898 24.6334 28.6911 24.9757 27.7598 24.9757C26.8286 24.9757 25.9299 24.6334 25.2346 24.0139C24.3396 23.2291 23.1861 22.8028 21.9958 22.817Z" fill="#CD0000"/>
<path d="M6.87113 33.462C8.10093 33.4791 9.29661 33.0575 10.2437 32.2728C10.9967 31.6459 11.9455 31.3027 12.9253 31.3027C13.9051 31.3027 14.8539 31.6459 15.6069 32.2728C16.5614 33.0437 17.7513 33.4642 18.9783 33.4642C20.2052 33.4642 21.3951 33.0437 22.3496 32.2728C23.102 31.6461 24.0502 31.3029 25.0295 31.3029C26.0087 31.3029 26.9569 31.6461 27.7093 32.2728C28.656 33.0573 29.8512 33.4789 31.0806 33.462C32.3097 33.4792 33.5047 33.0576 34.4508 32.2728C35.195 31.6324 36.1484 31.2873 37.1301 31.303C37.2877 31.303 37.439 31.2404 37.5505 31.1289C37.662 31.0174 37.7246 30.8661 37.7246 30.7084C37.7246 30.5507 37.662 30.3995 37.5505 30.288C37.439 30.1765 37.2877 30.1138 37.1301 30.1138C35.901 30.0966 34.706 30.5183 33.7599 31.303C33.0075 31.9297 32.0593 32.2729 31.0801 32.2729C30.1008 32.2729 29.1526 31.9297 28.4002 31.303C27.4459 30.5322 26.2562 30.1117 25.0295 30.1117C23.8027 30.1117 22.613 30.5322 21.6587 31.303C20.9061 31.9297 19.9577 32.2729 18.9783 32.2729C17.9989 32.2729 17.0505 31.9297 16.2978 31.303C15.3429 30.5321 14.1526 30.1117 12.9253 30.1117C11.698 30.1117 10.5077 30.5321 9.55275 31.303C8.80781 31.9438 7.85361 32.2889 6.87113 32.2728C6.71343 32.2728 6.5622 32.3355 6.45069 32.447C6.33918 32.5585 6.27654 32.7097 6.27654 32.8674C6.27654 33.0251 6.33918 33.1763 6.45069 33.2879C6.5622 33.3994 6.71343 33.462 6.87113 33.462Z" fill="#CD0000"/>
<path d="M4.23471 42.8108H39.7653C39.923 42.8108 40.0742 42.7482 40.1857 42.6367C40.2972 42.5252 40.3599 42.3739 40.3599 42.2162V39.7659C40.3594 39.2833 40.1675 38.8207 39.8263 38.4794C39.4851 38.1382 39.0224 37.9463 38.5398 37.9458H5.46017C4.9776 37.9463 4.51494 38.1382 4.17372 38.4794C3.83249 38.8207 3.64059 39.2833 3.64011 39.7659V42.2162C3.64011 42.3739 3.70276 42.5252 3.81427 42.6367C3.92578 42.7482 4.07701 42.8108 4.23471 42.8108ZM39.1707 41.6216H4.8293V39.7659C4.82946 39.5986 4.89598 39.4383 5.01425 39.32C5.13253 39.2017 5.2929 39.1352 5.46017 39.135H38.5398C38.7071 39.1352 38.8675 39.2017 38.9858 39.32C39.104 39.4383 39.1705 39.5986 39.1707 39.7659V41.6216Z" fill="#CD0000"/>
<path d="M61.184 22.2V39H58.616L49.352 27.624V39H46.256V22.2H48.824L58.088 33.576V22.2H61.184ZM71.1577 39.168C69.8617 39.168 68.6937 38.888 67.6537 38.328C66.6137 37.768 65.7977 36.992 65.2057 36C64.6297 34.992 64.3417 33.856 64.3417 32.592C64.3417 31.328 64.6297 30.2 65.2057 29.208C65.7977 28.216 66.6137 27.44 67.6537 26.88C68.6937 26.32 69.8617 26.04 71.1577 26.04C72.4697 26.04 73.6457 26.32 74.6857 26.88C75.7257 27.44 76.5337 28.216 77.1097 29.208C77.7017 30.2 77.9977 31.328 77.9977 32.592C77.9977 33.856 77.7017 34.992 77.1097 36C76.5337 36.992 75.7257 37.768 74.6857 38.328C73.6457 38.888 72.4697 39.168 71.1577 39.168ZM71.1577 36.6C72.2617 36.6 73.1737 36.232 73.8937 35.496C74.6137 34.76 74.9737 33.792 74.9737 32.592C74.9737 31.392 74.6137 30.424 73.8937 29.688C73.1737 28.952 72.2617 28.584 71.1577 28.584C70.0537 28.584 69.1417 28.952 68.4217 29.688C67.7177 30.424 67.3657 31.392 67.3657 32.592C67.3657 33.792 67.7177 34.76 68.4217 35.496C69.1417 36.232 70.0537 36.6 71.1577 36.6ZM86.6264 39.168C85.3304 39.168 84.1624 38.888 83.1224 38.328C82.0824 37.768 81.2664 36.992 80.6744 36C80.0984 34.992 79.8104 33.856 79.8104 32.592C79.8104 31.328 80.0984 30.2 80.6744 29.208C81.2664 28.216 82.0824 27.44 83.1224 26.88C84.1624 26.32 85.3304 26.04 86.6264 26.04C87.9384 26.04 89.1144 26.32 90.1544 26.88C91.1944 27.44 92.0024 28.216 92.5784 29.208C93.1704 30.2 93.4664 31.328 93.4664 32.592C93.4664 33.856 93.1704 34.992 92.5784 36C92.0024 36.992 91.1944 37.768 90.1544 38.328C89.1144 38.888 87.9384 39.168 86.6264 39.168ZM86.6264 36.6C87.7304 36.6 88.6424 36.232 89.3624 35.496C90.0824 34.76 90.4424 33.792 90.4424 32.592C90.4424 31.392 90.0824 30.424 89.3624 29.688C88.6424 28.952 87.7304 28.584 86.6264 28.584C85.5224 28.584 84.6104 28.952 83.8904 29.688C83.1864 30.424 82.8344 31.392 82.8344 32.592C82.8344 33.792 83.1864 34.76 83.8904 35.496C84.6104 36.232 85.5224 36.6 86.6264 36.6ZM99.1912 28.056C100.055 26.712 101.575 26.04 103.751 26.04V28.896C103.495 28.848 103.263 28.824 103.055 28.824C101.887 28.824 100.975 29.168 100.319 29.856C99.6632 30.528 99.3352 31.504 99.3352 32.784V39H96.3352V26.184H99.1912V28.056ZM106.296 26.184H109.296V39H106.296V26.184ZM107.808 24.072C107.264 24.072 106.808 23.904 106.44 23.568C106.072 23.216 105.888 22.784 105.888 22.272C105.888 21.76 106.072 21.336 106.44 21C106.808 20.648 107.264 20.472 107.808 20.472C108.352 20.472 108.808 20.64 109.176 20.976C109.544 21.296 109.728 21.704 109.728 22.2C109.728 22.728 109.544 23.176 109.176 23.544C108.824 23.896 108.368 24.072 107.808 24.072Z" fill="white"/>
<path d="M125.746 39.168C124.418 39.168 123.226 38.888 122.17 38.328C121.114 37.768 120.29 36.992 119.698 36C119.106 34.992 118.81 33.856 118.81 32.592C118.81 31.328 119.106 30.2 119.698 29.208C120.29 28.216 121.106 27.44 122.146 26.88C123.202 26.32 124.402 26.04 125.746 26.04C127.01 26.04 128.114 26.296 129.058 26.808C130.018 27.32 130.738 28.056 131.218 29.016L128.914 30.36C128.546 29.768 128.082 29.328 127.522 29.04C126.978 28.736 126.378 28.584 125.722 28.584C124.602 28.584 123.674 28.952 122.938 29.688C122.202 30.408 121.834 31.376 121.834 32.592C121.834 33.808 122.194 34.784 122.914 35.52C123.65 36.24 124.586 36.6 125.722 36.6C126.378 36.6 126.978 36.456 127.522 36.168C128.082 35.864 128.546 35.416 128.914 34.824L131.218 36.168C130.722 37.128 129.994 37.872 129.034 38.4C128.09 38.912 126.994 39.168 125.746 39.168ZM138.708 26.04C140.596 26.04 142.036 26.496 143.028 27.408C144.036 28.304 144.54 29.664 144.54 31.488V39H141.708V37.44C141.34 38 140.812 38.432 140.124 38.736C139.452 39.024 138.636 39.168 137.676 39.168C136.716 39.168 135.876 39.008 135.156 38.688C134.436 38.352 133.876 37.896 133.476 37.32C133.092 36.728 132.9 36.064 132.9 35.328C132.9 34.176 133.324 33.256 134.172 32.568C135.036 31.864 136.388 31.512 138.228 31.512H141.54V31.32C141.54 30.424 141.268 29.736 140.724 29.256C140.196 28.776 139.404 28.536 138.348 28.536C137.628 28.536 136.916 28.648 136.212 28.872C135.524 29.096 134.94 29.408 134.46 29.808L133.284 27.624C133.956 27.112 134.764 26.72 135.708 26.448C136.652 26.176 137.652 26.04 138.708 26.04ZM138.3 36.984C139.052 36.984 139.716 36.816 140.292 36.48C140.884 36.128 141.3 35.632 141.54 34.992V33.504H138.444C136.716 33.504 135.852 34.072 135.852 35.208C135.852 35.752 136.068 36.184 136.5 36.504C136.932 36.824 137.532 36.984 138.3 36.984ZM153.622 33.504L151.39 35.616V39H148.39V21.192H151.39V31.944L157.606 26.184H161.206L155.854 31.56L161.71 39H158.062L153.622 33.504ZM175.157 32.664C175.157 32.872 175.141 33.168 175.109 33.552H165.053C165.229 34.496 165.685 35.248 166.421 35.808C167.173 36.352 168.101 36.624 169.205 36.624C170.613 36.624 171.773 36.16 172.685 35.232L174.293 37.08C173.717 37.768 172.989 38.288 172.109 38.64C171.229 38.992 170.237 39.168 169.133 39.168C167.725 39.168 166.485 38.888 165.413 38.328C164.341 37.768 163.509 36.992 162.917 36C162.341 34.992 162.053 33.856 162.053 32.592C162.053 31.344 162.333 30.224 162.893 29.232C163.469 28.224 164.261 27.44 165.269 26.88C166.277 26.32 167.413 26.04 168.677 26.04C169.925 26.04 171.037 26.32 172.013 26.88C173.005 27.424 173.773 28.2 174.317 29.208C174.877 30.2 175.157 31.352 175.157 32.664ZM168.677 28.44C167.717 28.44 166.901 28.728 166.229 29.304C165.573 29.864 165.173 30.616 165.029 31.56H172.301C172.173 30.632 171.781 29.88 171.125 29.304C170.469 28.728 169.653 28.44 168.677 28.44ZM181.998 39.168C180.958 39.168 179.942 39.032 178.95 38.76C177.958 38.488 177.166 38.144 176.574 37.728L177.726 35.448C178.302 35.832 178.99 36.144 179.79 36.384C180.606 36.608 181.406 36.72 182.19 36.72C183.982 36.72 184.878 36.248 184.878 35.304C184.878 34.856 184.646 34.544 184.182 34.368C183.734 34.192 183.006 34.024 181.998 33.864C180.942 33.704 180.078 33.52 179.406 33.312C178.75 33.104 178.174 32.744 177.678 32.232C177.198 31.704 176.958 30.976 176.958 30.048C176.958 28.832 177.462 27.864 178.47 27.144C179.494 26.408 180.87 26.04 182.598 26.04C183.478 26.04 184.358 26.144 185.238 26.352C186.118 26.544 186.838 26.808 187.398 27.144L186.246 29.424C185.158 28.784 183.934 28.464 182.574 28.464C181.694 28.464 181.022 28.6 180.558 28.872C180.11 29.128 179.886 29.472 179.886 29.904C179.886 30.384 180.126 30.728 180.606 30.936C181.102 31.128 181.862 31.312 182.886 31.488C183.91 31.648 184.75 31.832 185.406 32.04C186.062 32.248 186.622 32.6 187.086 33.096C187.566 33.592 187.806 34.296 187.806 35.208C187.806 36.408 187.286 37.368 186.246 38.088C185.206 38.808 183.79 39.168 181.998 39.168Z" fill="#CD0000"/>
</svg>
